<svg xmlns="http://www.w3.org/2000/svg" width="662" height="118" viewBox="0 0 662 118">
  <g id="Group_13060" data-name="Group 13060" transform="translate(369 1954)">
    <rect id="Image_136" data-name="Image 136" width="662" height="118" transform="translate(-369 -1954)" fill="none"/>
    <g id="Group_13059" data-name="Group 13059" transform="translate(-443 -2028)">
      <g id="Group_13054" data-name="Group 13054" transform="translate(75 74)">
        <g id="Group_13051" data-name="Group 13051" transform="translate(0 0)">
          <g id="Ellipse_232" data-name="Ellipse 232" fill="none" stroke="#fff" stroke-width="11" stroke-dasharray="1">
            <circle cx="59" cy="59" r="59" stroke="none"/>
            <circle cx="59" cy="59" r="53.5" fill="none"/>
          </g>
        </g>
      </g>
      <g id="Group_13057" data-name="Group 13057" transform="translate(105.376 104.376)">
        <g id="Group_13055" data-name="Group 13055" transform="translate(0 0)">
          <g id="Group_13051-2" data-name="Group 13051" transform="translate(0 0)">
            <g id="Ellipse_232-2" data-name="Ellipse 232" transform="translate(-0.376 -0.376)" fill="none" stroke="#fff" stroke-width="8" stroke-dasharray="1">
              <circle cx="23" cy="23" r="23" stroke="none"/>
              <circle cx="23" cy="23" r="19" fill="none"/>
            </g>
          </g>
        </g>
        <g id="Group_13056" data-name="Group 13056" transform="translate(11.683 12.851)">
          <g id="Group_13051-3" data-name="Group 13051" transform="translate(0 0)">
            <g id="Ellipse_232-3" data-name="Ellipse 232" transform="translate(-0.059 -0.228)" fill="none" stroke="#fff" stroke-width="8" stroke-dasharray="1">
              <ellipse cx="23" cy="23.5" rx="23" ry="23.5" stroke="none"/>
              <ellipse cx="23" cy="23.5" rx="19" ry="19.5" fill="none"/>
            </g>
          </g>
        </g>
      </g>
    </g>
    <path id="Path_7413" data-name="Path 7413" d="M27.93.95A29.459,29.459,0,0,1,18.288-.57a19.779,19.779,0,0,1-7.742-4.893A22.686,22.686,0,0,1,5.368-14.44,44.325,44.325,0,0,1,3.515-28.215v-8.74a43.294,43.294,0,0,1,1.9-13.775,23.13,23.13,0,0,1,5.225-8.978A19.779,19.779,0,0,1,18.383-64.6a28.856,28.856,0,0,1,9.452-1.52h1.33a26.327,26.327,0,0,1,12.683,2.85,18.594,18.594,0,0,1,8.028,8.6Q52.63-48.925,52.63-40.28h-9.6a31.554,31.554,0,0,0-1.377-10.213,10.3,10.3,0,0,0-4.607-5.795,17.344,17.344,0,0,0-8.645-1.853,17.5,17.5,0,0,0-5.748.9A11.282,11.282,0,0,0,18.05-54.2a14.817,14.817,0,0,0-3.135,5.843,32.178,32.178,0,0,0-1.14,9.31V-26.22a32.68,32.68,0,0,0,1.14,9.358,14.812,14.812,0,0,0,3.135,5.89,11.282,11.282,0,0,0,4.608,3.04,17.5,17.5,0,0,0,5.748.9q8.17,0,11.542-4.228T43.32-24.8h9.31a32.161,32.161,0,0,1-2.755,14.06A19.524,19.524,0,0,1,41.9-2.043,25.035,25.035,0,0,1,29.26.95ZM96.9.95A22.371,22.371,0,0,1,84.835-2.185a20.334,20.334,0,0,1-7.7-8.693,28.8,28.8,0,0,1-2.66-12.587V-25.08a28.948,28.948,0,0,1,2.66-12.73,20.085,20.085,0,0,1,7.7-8.6A22.45,22.45,0,0,1,96.805-49.5a22.556,22.556,0,0,1,12.16,3.135,20.392,20.392,0,0,1,7.695,8.645,28.719,28.719,0,0,1,2.66,12.635v1.615a28.948,28.948,0,0,1-2.66,12.73,20.084,20.084,0,0,1-7.695,8.6A22.636,22.636,0,0,1,96.9.95Zm0-6.745a11.423,11.423,0,0,0,9.025-4.037q3.515-4.038,3.515-11.258v-6.365q0-7.22-3.515-11.258A11.423,11.423,0,0,0,96.9-42.75a11.462,11.462,0,0,0-8.978,4.037Q84.36-34.675,84.36-27.455v6.365q0,7.22,3.563,11.258A11.462,11.462,0,0,0,96.9-5.8ZM163.21,0V-41.135H145.825v-7.41H172.71V0ZM145.825,0V-7.315h43.32V0ZM162.83-58.52v-9.12h8.93v9.12ZM213.37,0V-48.545h7.7l.95,6.935A13.439,13.439,0,0,1,228.19-47.6a20.286,20.286,0,0,1,8.835-1.9q7.98,0,12.73,4.465t4.75,13.205V0h-9.5V-29.07q0-6.84-2.8-9.975a9.969,9.969,0,0,0-7.837-3.135,10.492,10.492,0,0,0-6.08,1.758,11.625,11.625,0,0,0-3.99,4.845A16.714,16.714,0,0,0,222.87-28.5V0ZM343.235,0,364.42-65.17h12.065L397.765,0h-10.26l-17.2-55.385h-.38L353.115,0Zm10.64-14.63v-7.695h32.87v7.695ZM420.565,0V-7.79h13.3V-57.38h-13.3v-7.79h36.67v7.79h-13.3V-7.79h13.3V0Z" transform="translate(-222 -1861.655)" fill="#fff"/>
  </g>
</svg>
